<?xml version="1.0" encoding="UTF-8"?><svg id="Layer_1" xmlns="http://www.w3.org/2000/svg" viewBox="0 0 29.07 31.05"><path d="M0,0V31.05H29.07V0H0ZM23.33,7.05c.84-.17,1.48-.92,1.48-1.81s-.64-1.65-1.48-1.82v-.67h4.75V7.72h-4.75v-.67Zm0,1.42h4.75v4.8h-4.75v-4.8Zm0,5.55h4.75v5.16h-4.75v-5.16Zm0,5.91h4.75v4.81h-4.75v-4.81ZM5.74,30.3H.99v-4.81H5.74v4.81Zm0-5.56H.99v-4.81H5.74v4.81Zm0-10.2c-.84,.17-1.48,.92-1.48,1.81s.64,1.64,1.48,1.81v1.02H.99v-5.16H5.74v.52Zm0-1.27H.99v-4.8H5.74v4.8Zm0-5.55H.99V2.75H5.74V7.72Zm5.61,22.58H6.49v-4.81h4.86v4.81Zm0-5.56H6.49v-4.81h4.86v4.81Zm0-5.56H6.49v-1.02c.84-.18,1.47-.92,1.47-1.81s-.63-1.63-1.47-1.81v-.52h4.86v5.16Zm0-10.12c-.84,.17-1.47,.92-1.47,1.81s.63,1.64,1.47,1.81v.59H6.49v-4.8h4.86v.59Zm0-1.34H6.49V2.75h4.86V7.72Zm5.62,22.58h-4.87v-4.81h4.87v4.81Zm0-5.56h-4.87v-4.81h4.87v4.81Zm0-5.56h-4.87v-5.16h4.87v5.16Zm0-5.91h-4.87v-.59c.84-.17,1.48-.92,1.48-1.81s-.64-1.64-1.48-1.81v-.59h4.87v4.8Zm0-5.55h-4.87V2.75h4.87V7.72Zm5.61,22.58h-4.86v-4.81h4.86v4.81Zm0-5.56h-4.86v-4.81h4.86v4.81Zm0-5.56h-4.86v-5.16h4.86v5.16Zm0-5.91h-4.86v-4.8h4.86v4.8Zm0-9.85c-.84,.18-1.47,.92-1.47,1.82s.63,1.63,1.47,1.81v.67h-4.86V2.75h4.86v.67Zm.75,26.88v-4.81h4.75v4.81h-4.75Z"/></svg>