<svg xmlns="http://www.w3.org/2000/svg" width="28" height="26" viewBox="0 0 28 26">
  <g id="_4634572_chord_music_note_playlist_icon" data-name="4634572_chord_music_note_playlist_icon" transform="translate(-2 -3)">
    <g id="Group_29" data-name="Group 29">
      <path id="Path_7" data-name="Path 7" d="M21.857,25.571a1,1,0,0,1-1-1V4a1,1,0,0,1,1.229-.974C22.9,3.218,30,5.008,30,9.019a4.205,4.205,0,0,1-1.184,3.265,3,3,0,0,1-2.2.764,1,1,0,0,1-.9-1.095,1.01,1.01,0,0,1,1.095-.9,1.027,1.027,0,0,0,.681-.272A2.443,2.443,0,0,0,28,9.019c0-1.588-2.949-2.984-5.143-3.7V24.571A1,1,0,0,1,21.857,25.571Z" fill="#303030"/>
    </g>
    <g id="Group_30" data-name="Group 30">
      <path id="Path_8" data-name="Path 8" d="M18.429,29a4.429,4.429,0,1,1,4.428-4.429A4.434,4.434,0,0,1,18.429,29Zm0-6.857a2.429,2.429,0,1,0,2.428,2.429A2.432,2.432,0,0,0,18.429,22.143Z" fill="#303030"/>
    </g>
    <g id="Group_31" data-name="Group 31">
      <path id="Path_9" data-name="Path 9" d="M16,14.107H3a1,1,0,0,1,0-2H16a1,1,0,0,1,0,2Z" fill="#303030"/>
    </g>
    <g id="Group_32" data-name="Group 32">
      <path id="Path_10" data-name="Path 10" d="M13.008,19.893H3a1,1,0,0,1,0-2H13.008a1,1,0,0,1,0,2Z" fill="#303030"/>
    </g>
    <g id="Group_33" data-name="Group 33">
      <path id="Path_11" data-name="Path 11" d="M10.953,26H3a1,1,0,0,1,0-2h7.953a1,1,0,1,1,0,2Z" fill="#303030"/>
    </g>
  </g>
</svg>
