<?xml version="1.0" encoding="UTF-8"?><svg id="Layer_2" xmlns="http://www.w3.org/2000/svg" viewBox="0 0 12.38 24"><g id="Layer_1-2"><path d="M12.38,2.47l-.32,1.22v.07S6.79,24,6.79,24l-1.03-.26,3.55-13.68c-3.78,2.07-7.16,2.25-8.49,.74-.88-1-1.25-3.13-.1-4.22,.76-.71,2.03-.88,3.06-.46,.36,.16,.68,.37,.95,.67,.89,.98,.66,2.31,.64,2.49,.37,.19,1.06,.48,1.95,.5,.95,.01,1.7-.28,2.19-.53l1.25-4.81c-2.72,1.38-5.18,1.75-6.75,1.19-.01,0-.01-.01-.02-.01-.46-.17-.84-.41-1.13-.73-.88-1-1.25-3.13-.08-4.22,1-.95,2.96-.94,3.99,.22,.89,.98,.67,2.31,.64,2.49,.37,.19,1.07,.48,1.97,.5,.62,.01,1.17-.11,1.61-.28l.37-1.41,1.03,.26Z"/></g></svg>