<?xml version="1.0" encoding="UTF-8"?><svg id="Layer_2" xmlns="http://www.w3.org/2000/svg" viewBox="0 0 16.04 24"><g id="Layer_1-2"><path d="M15.34,8.79c-1.13-1.91-3.39-2.63-4.9-6.08C9.8,1.24,9.59-.03,9.31,0c-.02,0-.04,.01-.06,.03V0h-1.2V16.64c-1.27-.68-3.32-.43-5.17,.74-2.36,1.5-3.5,3.95-2.53,5.47,.96,1.52,3.66,1.54,6.03,.04,1.72-1.09,2.79-2.68,2.87-4.06,0-.06,0-.12,0-.17V9.71c1.29,.5,4.46,1.96,5.36,4.95,.04,.13,.07,.25,.1,.38-.21,1.61-.62,2.92-.97,3.84,.46-.87,.84-1.68,1.14-2.42,.03,.78-.04,1.54-.11,2.23-.17,1.88-.64,3.38-1.04,4.4,2.44-4.63,2.61-7.44,2-9.2,.59-2.44,.23-4.03-.4-5.1Zm-4.9-1.88c-.17-.39-.31-.76-.42-1.09,1.5,.7,3.84,2.13,4.6,4.63,.19,.63,.27,1.28,.28,1.91-1.2-1.49-3.13-2.41-4.45-5.45Z"/></g></svg>