<?xml version="1.0" encoding="UTF-8"?><svg id="Layer_2" xmlns="http://www.w3.org/2000/svg" viewBox="0 0 13.96 24"><g id="Layer_1-2"><path d="M13.96,2.47l-.32,1.22h0s-.01,.07-.01,.07l-5.25,20.24-1.03-.26,2.03-7.82c-3.8,2.1-7.21,2.3-8.55,.78-.88-1-1.25-3.13-.08-4.22,.6-.56,1.53-.79,2.41-.64,.11,.01,.22,.04,.32,.07,.1,.02,.19,.06,.28,.1,.37,.16,.71,.38,.98,.68,.89,.98,.67,2.31,.64,2.49,.37,.19,1.07,.48,1.97,.5,.98,.01,1.76-.3,2.24-.55l1.32-5.08c-2.78,1.52-5.35,2.03-7.04,1.58-.1-.02-.18-.05-.26-.08-.12-.04-.24-.08-.35-.13-.34-.16-.61-.37-.84-.62-.88-1-1.25-3.13-.1-4.22,.76-.71,2.03-.88,3.06-.46,.1,.04,.18,.08,.26,.13,.25,.13,.48,.31,.68,.54,.89,.98,.66,2.31,.64,2.49,.37,.19,1.06,.48,1.95,.5,.95,.01,1.7-.28,2.19-.53l1.25-4.81c-2.61,1.32-4.99,1.71-6.56,1.25-.06-.01-.13-.04-.19-.06-.01,0-.01-.01-.02-.01-.46-.17-.83-.41-1.13-.73-.88-1-1.25-3.13-.08-4.22,1-.95,2.96-.94,3.99,.22,.89,.98,.67,2.31,.64,2.49,.37,.19,1.07,.48,1.97,.5,.62,.01,1.17-.11,1.61-.28l.37-1.41,1.03,.26Z"/></g></svg>