<?xml version="1.0" encoding="UTF-8"?><svg id="Layer_2" xmlns="http://www.w3.org/2000/svg" viewBox="0 0 16.04 24"><g id="Layer_1-2"><path d="M15.87,13.25c.39-2.09,.04-3.48-.53-4.46-1.13-1.91-3.4-2.63-4.9-6.08C9.8,1.24,9.6-.03,9.32,0c-.02,0-.04,.01-.07,.03V0h-1.2V16.64c-1.27-.68-3.32-.43-5.17,.74-2.36,1.5-3.5,3.95-2.53,5.47s3.66,1.54,6.03,.04c1.72-1.09,2.79-2.68,2.87-4.06,0-.06,0-.12,0-.17v-6.88c1.23,.47,4.2,1.84,5.24,4.59-.22,1.01-.5,1.86-.75,2.5,.36-.68,.67-1.32,.93-1.93,.05,.18,.09,.37,.12,.55,0,.03,0,.06,0,.09-.18,1.88-.65,3.38-1.04,4.4,.45-.86,.83-1.65,1.13-2.39-.02,.4-.06,.79-.09,1.16-.11,1.2-.34,2.25-.6,3.11h.21c1.67-3.54,1.88-5.89,1.48-7.48,.25-1.29,.21-2.32,0-3.15Zm-1.26-2.8c.07,.22,.12,.45,.16,.67-1.17-1.36-2.93-2.3-4.21-5.03,1.47,.77,3.38,2.15,4.05,4.36Zm-4.09-1.26c1.48,.76,3.41,2.14,4.09,4.38,.07,.25,.13,.5,.18,.76-1.19-1.38-2.98-2.33-4.26-5.13Zm4.27,5.16s0-.02,0-.03c0,0,0,0,0,0,0,0,0,.01,0,.02Z"/></g></svg>